<!-- <svg width="20" height="20" viewBox="0 0 20 20" fill="none" xmlns="http://www.w3.org/2000/svg">
  <path fill-rule="evenodd" clip-rule="evenodd" d="M1 4.5C1 1.87479 1.02811 1 4.5 1C7.97189 1 8 1.87479 8 4.5C8 7.12521 8.01107 8 4.5 8C0.988927 8 1 7.12521 1 4.5Z" stroke="#1DC071" stroke-width="2" stroke-linecap="round" stroke-linejoin="round" />
  <path fill-rule="evenodd" clip-rule="evenodd" d="M12 4.5C12 1.87479 12.0281 1 15.5 1C18.9719 1 19 1.87479 19 4.5C19 7.12521 19.0111 8 15.5 8C11.9889 8 12 7.12521 12 4.5Z" stroke="#1DC071" stroke-width="2" stroke-linecap="round" stroke-linejoin="round" />
  <path fill-rule="evenodd" clip-rule="evenodd" d="M1 15.5C1 12.8748 1.02811 12 4.5 12C7.97189 12 8 12.8748 8 15.5C8 18.1252 8.01107 19 4.5 19C0.988927 19 1 18.1252 1 15.5Z" stroke="#1DC071" stroke-width="2" stroke-linecap="round" stroke-linejoin="round" />
  <path fill-rule="evenodd" clip-rule="evenodd" d="M12 15.5C12 12.8748 12.0281 12 15.5 12C18.9719 12 19 12.8748 19 15.5C19 18.1252 19.0111 19 15.5 19C11.9889 19 12 18.1252 12 15.5Z" stroke="#1DC071" stroke-width="2" stroke-linecap="round" stroke-linejoin="round" />
</svg> -->


<svg width="256px" height="256px" viewBox="0 0 24.00 24.00" id="meteor-icon-kit__regular-dashboard" fill="none" xmlns="http://www.w3.org/2000/svg" stroke="#b51a00" stroke-width="0.00024000000000000003" transform="rotate(180)matrix(1, 0, 0, 1, 0, 0)">
  <g id="SVGRepo_bgCarrier" stroke-width="2"></g>
  <g id="SVGRepo_tracerCarrier" stroke-linecap="round" stroke-linejoin="round"></g>
  <g id="SVGRepo_iconCarrier">
    <path fill-rule="evenodd" clip-rule="evenodd" d="M3 2C2.44772 2 2 2.44772 2 3V6C2 6.55228 2.44772 7 3 7H6C6.55228 7 7 6.55228 7 6V3C7 2.44772 6.55228 2 6 2H3ZM3 0H6C7.65685 0 9 1.34315 9 3V6C9 7.65685 7.65685 9 6 9H3C1.34315 9 0 7.65685 0 6V3C0 1.34315 1.34315 0 3 0ZM14 16H21C22.6569 16 24 17.3431 24 19V21C24 22.6569 22.6569 24 21 24H14C12.3431 24 11 22.6569 11 21V19C11 17.3431 12.3431 16 14 16ZM14 18C13.4477 18 13 18.4477 13 19V21C13 21.5523 13.4477 22 14 22H21C21.5523 22 22 21.5523 22 21V19C22 18.4477 21.5523 18 21 18H14ZM3 11H6C7.65685 11 9 12.3431 9 14V21C9 22.6569 7.65685 24 6 24H3C1.34315 24 0 22.6569 0 21V14C0 12.3431 1.34315 11 3 11ZM3 13C2.44772 13 2 13.4477 2 14V21C2 21.5523 2.44772 22 3 22H6C6.55228 22 7 21.5523 7 21V14C7 13.4477 6.55228 13 6 13H3ZM21 0C22.6569 0 24 1.34315 24 3V11C24 12.6569 22.6569 14 21 14H14C12.3431 14 11 12.6569 11 11V3C11 1.34315 12.3431 0 14 0H21ZM13 3V11C13 11.5523 13.4477 12 14 12H21C21.5523 12 22 11.5523 22 11V3C22 2.44772 21.5523 2 21 2H14C13.4477 2 13 2.44772 13 3Z" fill="#008cb4"></path>
  </g>
</svg>